<svg width="30" height="18" viewBox="0 0 30 18" fill="none" xmlns="http://www.w3.org/2000/svg">
<path d="M29.7326 16.0839C29.652 15.9489 29.1532 14.8651 26.753 12.6374C24.2403 10.3048 24.5778 10.6835 27.6043 6.65012C29.4476 4.19369 30.1845 2.69358 29.9539 2.05228C29.7345 1.44099 28.3787 1.60225 28.3787 1.60225L23.8709 1.6285C23.8709 1.6285 23.5371 1.5835 23.2877 1.73163C23.0459 1.87789 22.8902 2.21542 22.8902 2.21542C22.8902 2.21542 22.1758 4.11681 21.2232 5.73318C19.215 9.14406 18.4105 9.32407 18.0824 9.11218C17.3192 8.61902 17.5105 7.12828 17.5105 6.07071C17.5105 2.76484 18.0111 1.38661 16.5335 1.03033C16.0422 0.912197 15.6822 0.833441 14.4277 0.820315C12.8189 0.803439 11.4556 0.825941 10.6849 1.20284C10.1712 1.45411 9.77551 2.01478 10.0174 2.04666C10.3155 2.08603 10.9906 2.22855 11.3487 2.71608C11.8119 3.34425 11.795 4.75811 11.795 4.75811C11.795 4.75811 12.0613 8.64902 11.1744 9.13281C10.5649 9.46471 9.7305 8.78778 7.93975 5.69193C7.02281 4.10743 6.32901 2.35418 6.32901 2.35418C6.32901 2.35418 6.19587 2.02791 5.95773 1.85352C5.66896 1.64163 5.26393 1.57412 5.26393 1.57412L0.977365 1.60037C0.977365 1.60037 0.334193 1.61913 0.0979258 1.89852C-0.11209 2.14791 0.0810495 2.6617 0.0810495 2.6617C0.0810495 2.6617 3.43755 10.5129 7.23657 14.4713C10.7225 18.0997 14.679 17.8616 14.679 17.8616H16.4716C16.4716 17.8616 17.0135 17.8016 17.2892 17.5034C17.5442 17.2297 17.5348 16.7159 17.5348 16.7159C17.5348 16.7159 17.4992 14.3101 18.6168 13.9557C19.7175 13.6069 21.1313 16.2808 22.6296 17.3103C23.7622 18.0885 24.6228 17.9178 24.6228 17.9178L28.63 17.8616C28.63 17.8616 30.7264 17.7322 29.7326 16.0839Z" fill="#261104"/>
</svg>
